G04 #@! TF.FileFunction,Soldermask,Bot*
%FSLAX46Y46*%
G04 Gerber Fmt 4.6, Leading zero omitted, Abs format (unit mm)*
G04 Created by KiCad (PCBNEW 0.201508290901+6132~28~ubuntu14.04.1-product) date Sat 02 Jan 2016 04:08:58 PM EST*
%MOMM*%
G01*
G04 APERTURE LIST*
%ADD10C,0.100000*%
%ADD11C,0.150000*%
%ADD12R,1.800000X1.800000*%
%ADD13C,1.800000*%
%ADD14C,1.901140*%
%ADD15R,2.099260X2.099260*%
%ADD16C,2.398980*%
%ADD17R,2.398980X2.398980*%
%ADD18R,1.598880X2.099260*%
%ADD19O,1.598880X2.099260*%
%ADD20R,3.399740X3.399740*%
%ADD21C,3.399740*%
%ADD22R,1.924000X2.599640*%
%ADD23R,2.200000X2.200000*%
%ADD24C,2.200000*%
%ADD25C,5.400000*%
%ADD26O,2.144980X2.899360*%
%ADD27O,2.147520X2.899360*%
%ADD28C,4.400500*%
G04 APERTURE END LIST*
D10*
D11*
X187000000Y-44000000D02*
X136000000Y-44000000D01*
X187000000Y-70000000D02*
X187000000Y-44000000D01*
X187000000Y-70200000D02*
X187000000Y-70000000D01*
X110000000Y-70200000D02*
X187000000Y-70200000D01*
X110000000Y-44000000D02*
X110000000Y-70200000D01*
X136000000Y-44000000D02*
X110000000Y-44000000D01*
D12*
X122351800Y-54660800D03*
D13*
X122351800Y-59660800D03*
D12*
X127685800Y-54686200D03*
D13*
X127685800Y-59686200D03*
D12*
X169570400Y-59486800D03*
D13*
X169570400Y-54486800D03*
D12*
X175056800Y-59483000D03*
D13*
X175056800Y-54483000D03*
D14*
X156667200Y-47320200D03*
X156667200Y-51130200D03*
D15*
X178440000Y-66700000D03*
D16*
X175900000Y-66700000D03*
X174853600Y-50800000D03*
D17*
X164693600Y-50800000D03*
D18*
X127635000Y-67995800D03*
D19*
X125633480Y-67995800D03*
D20*
X115290600Y-54610000D03*
D21*
X115290600Y-59690000D03*
D22*
X148209000Y-60401200D03*
X144627600Y-60401200D03*
D18*
X170891200Y-67970400D03*
D19*
X168889680Y-67970400D03*
D20*
X181711600Y-59486800D03*
D21*
X181711600Y-54406800D03*
D16*
X169087800Y-47472600D03*
X179247800Y-47472600D03*
D23*
X136400000Y-53100000D03*
D24*
X136400000Y-48100000D03*
D23*
X147294600Y-52904400D03*
D24*
X147294600Y-47904400D03*
D15*
X118458660Y-66900000D03*
D16*
X120998660Y-66900000D03*
D22*
X151638000Y-60401200D03*
D16*
X129380000Y-49200000D03*
X119220000Y-49200000D03*
D25*
X112979200Y-67235400D03*
X183997600Y-46991600D03*
X184023000Y-67210000D03*
X112979200Y-46964600D03*
D26*
X150723600Y-66713100D03*
D27*
X148183600Y-66713100D03*
X145643600Y-66713100D03*
D28*
X160883600Y-63220600D03*
X135483600Y-63220600D03*
M02*
