M48
METRIC,TZ
T1C0.701
T2C0.800
T3C0.800
T4C0.900
T5C1.001
T6C1.199
T7C1.270
T8C1.400
T9C2.748
T10C3.500
%
G90
G05
T1
X125633Y-67996
X127635Y-67996
X168890Y-67970
X170891Y-67970
T2
X136400Y-48100
X136400Y-53100
X147295Y-47904
X147295Y-52904
T3
X156667Y-47320
X156667Y-51130
T4
X122352Y-54661
X122352Y-59661
X127686Y-54686
X127686Y-59686
X169570Y-54487
X169570Y-59487
X175057Y-54483
X175057Y-59483
T5
X118459Y-66900
X119220Y-49200
X120999Y-66900
X129380Y-49200
X144628Y-60401
X148209Y-60401
X151638Y-60401
X164694Y-50800
X169088Y-47473
X175900Y-66700
X178440Y-66700
X179248Y-47473
T6
X145644Y-66713
X148184Y-66713
X150724Y-66713
T7
X174854Y-50800
T8
X115291Y-54610
X115291Y-59690
X181712Y-54407
X181712Y-59487
T9
X135484Y-63221
X160884Y-63221
T10
X112979Y-46965
X112979Y-67235
X183998Y-46992
X184023Y-67210
T0
M30
