G04 #@! TF.FileFunction,Legend,Bot*
%FSLAX46Y46*%
G04 Gerber Fmt 4.6, Leading zero omitted, Abs format (unit mm)*
G04 Created by KiCad (PCBNEW 0.201508290901+6132~28~ubuntu14.04.1-product) date Sat 02 Jan 2016 04:08:58 PM EST*
%MOMM*%
G01*
G04 APERTURE LIST*
%ADD10C,0.100000*%
%ADD11C,0.125000*%
%ADD12C,0.200000*%
%ADD13C,0.300000*%
%ADD14C,0.150000*%
G04 APERTURE END LIST*
D10*
D11*
X186074857Y-54880963D02*
X186574857Y-54880963D01*
X186098667Y-54880963D02*
X186074857Y-54928582D01*
X186074857Y-55023820D01*
X186098667Y-55071439D01*
X186122476Y-55095248D01*
X186170095Y-55119058D01*
X186312952Y-55119058D01*
X186360571Y-55095248D01*
X186384381Y-55071439D01*
X186408190Y-55023820D01*
X186408190Y-54928582D01*
X186384381Y-54880963D01*
X186408190Y-55404772D02*
X186384381Y-55357153D01*
X186360571Y-55333344D01*
X186312952Y-55309534D01*
X186170095Y-55309534D01*
X186122476Y-55333344D01*
X186098667Y-55357153D01*
X186074857Y-55404772D01*
X186074857Y-55476201D01*
X186098667Y-55523820D01*
X186122476Y-55547629D01*
X186170095Y-55571439D01*
X186312952Y-55571439D01*
X186360571Y-55547629D01*
X186384381Y-55523820D01*
X186408190Y-55476201D01*
X186408190Y-55404772D01*
X186074857Y-55738106D02*
X186408190Y-55833344D01*
X186170095Y-55928582D01*
X186408190Y-56023820D01*
X186074857Y-56119058D01*
X186384381Y-56500011D02*
X186408190Y-56452392D01*
X186408190Y-56357154D01*
X186384381Y-56309535D01*
X186336762Y-56285725D01*
X186146286Y-56285725D01*
X186098667Y-56309535D01*
X186074857Y-56357154D01*
X186074857Y-56452392D01*
X186098667Y-56500011D01*
X186146286Y-56523820D01*
X186193905Y-56523820D01*
X186241524Y-56285725D01*
X186408190Y-56738106D02*
X186074857Y-56738106D01*
X186170095Y-56738106D02*
X186122476Y-56761915D01*
X186098667Y-56785725D01*
X186074857Y-56833344D01*
X186074857Y-56880963D01*
X186408190Y-57500010D02*
X186384381Y-57452391D01*
X186360571Y-57428582D01*
X186312952Y-57404772D01*
X186170095Y-57404772D01*
X186122476Y-57428582D01*
X186098667Y-57452391D01*
X186074857Y-57500010D01*
X186074857Y-57571439D01*
X186098667Y-57619058D01*
X186122476Y-57642867D01*
X186170095Y-57666677D01*
X186312952Y-57666677D01*
X186360571Y-57642867D01*
X186384381Y-57619058D01*
X186408190Y-57571439D01*
X186408190Y-57500010D01*
X186074857Y-58095248D02*
X186408190Y-58095248D01*
X186074857Y-57880963D02*
X186336762Y-57880963D01*
X186384381Y-57904772D01*
X186408190Y-57952391D01*
X186408190Y-58023820D01*
X186384381Y-58071439D01*
X186360571Y-58095248D01*
X186074857Y-58261915D02*
X186074857Y-58452391D01*
X185908190Y-58333344D02*
X186336762Y-58333344D01*
X186384381Y-58357153D01*
X186408190Y-58404772D01*
X186408190Y-58452391D01*
X186074857Y-58619058D02*
X186574857Y-58619058D01*
X186098667Y-58619058D02*
X186074857Y-58666677D01*
X186074857Y-58761915D01*
X186098667Y-58809534D01*
X186122476Y-58833343D01*
X186170095Y-58857153D01*
X186312952Y-58857153D01*
X186360571Y-58833343D01*
X186384381Y-58809534D01*
X186408190Y-58761915D01*
X186408190Y-58666677D01*
X186384381Y-58619058D01*
X186074857Y-59285724D02*
X186408190Y-59285724D01*
X186074857Y-59071439D02*
X186336762Y-59071439D01*
X186384381Y-59095248D01*
X186408190Y-59142867D01*
X186408190Y-59214296D01*
X186384381Y-59261915D01*
X186360571Y-59285724D01*
X186074857Y-59452391D02*
X186074857Y-59642867D01*
X185908190Y-59523820D02*
X186336762Y-59523820D01*
X186384381Y-59547629D01*
X186408190Y-59595248D01*
X186408190Y-59642867D01*
D12*
X155600000Y-51700000D02*
X155650000Y-51700000D01*
X155150000Y-51700000D02*
X155600000Y-51700000D01*
D11*
X149009076Y-53578914D02*
X148628124Y-53578914D01*
X148818600Y-53769390D02*
X148818600Y-53388438D01*
X127790476Y-65235714D02*
X127409524Y-65235714D01*
X127600000Y-65426190D02*
X127600000Y-65045238D01*
X125119048Y-64950000D02*
X125166667Y-64926190D01*
X125238095Y-64926190D01*
X125309524Y-64950000D01*
X125357143Y-64997619D01*
X125380952Y-65045238D01*
X125404762Y-65140476D01*
X125404762Y-65211905D01*
X125380952Y-65307143D01*
X125357143Y-65354762D01*
X125309524Y-65402381D01*
X125238095Y-65426190D01*
X125190476Y-65426190D01*
X125119048Y-65402381D01*
X125095238Y-65378571D01*
X125095238Y-65211905D01*
X125190476Y-65211905D01*
X118319048Y-65150000D02*
X118366667Y-65126190D01*
X118438095Y-65126190D01*
X118509524Y-65150000D01*
X118557143Y-65197619D01*
X118580952Y-65245238D01*
X118604762Y-65340476D01*
X118604762Y-65411905D01*
X118580952Y-65507143D01*
X118557143Y-65554762D01*
X118509524Y-65602381D01*
X118438095Y-65626190D01*
X118390476Y-65626190D01*
X118319048Y-65602381D01*
X118295238Y-65578571D01*
X118295238Y-65411905D01*
X118390476Y-65411905D01*
X119859524Y-65685714D02*
X120240476Y-65685714D01*
X120050000Y-65876190D02*
X120050000Y-65495238D01*
X153920247Y-58154390D02*
X153753580Y-58654390D01*
X153586914Y-58154390D01*
X153539295Y-58702010D02*
X153158343Y-58702010D01*
X152944057Y-58154390D02*
X152848819Y-58154390D01*
X152801200Y-58178200D01*
X152753581Y-58225819D01*
X152729772Y-58321057D01*
X152729772Y-58487724D01*
X152753581Y-58582962D01*
X152801200Y-58630581D01*
X152848819Y-58654390D01*
X152944057Y-58654390D01*
X152991676Y-58630581D01*
X153039295Y-58582962D01*
X153063105Y-58487724D01*
X153063105Y-58321057D01*
X153039295Y-58225819D01*
X152991676Y-58178200D01*
X152944057Y-58154390D01*
X143826590Y-57951990D02*
X143659923Y-58451990D01*
X143493257Y-57951990D01*
X143326590Y-58261514D02*
X142945638Y-58261514D01*
X143136114Y-58451990D02*
X143136114Y-58071038D01*
X147875248Y-58079000D02*
X147922867Y-58055190D01*
X147994295Y-58055190D01*
X148065724Y-58079000D01*
X148113343Y-58126619D01*
X148137152Y-58174238D01*
X148160962Y-58269476D01*
X148160962Y-58340905D01*
X148137152Y-58436143D01*
X148113343Y-58483762D01*
X148065724Y-58531381D01*
X147994295Y-58555190D01*
X147946676Y-58555190D01*
X147875248Y-58531381D01*
X147851438Y-58507571D01*
X147851438Y-58340905D01*
X147946676Y-58340905D01*
X178330952Y-64850000D02*
X178283333Y-64826190D01*
X178211905Y-64826190D01*
X178140476Y-64850000D01*
X178092857Y-64897619D01*
X178069048Y-64945238D01*
X178045238Y-65040476D01*
X178045238Y-65111905D01*
X178069048Y-65207143D01*
X178092857Y-65254762D01*
X178140476Y-65302381D01*
X178211905Y-65326190D01*
X178259524Y-65326190D01*
X178330952Y-65302381D01*
X178354762Y-65278571D01*
X178354762Y-65111905D01*
X178259524Y-65111905D01*
X176090476Y-65135714D02*
X175709524Y-65135714D01*
X175900000Y-65326190D02*
X175900000Y-64945238D01*
X171090476Y-66235714D02*
X170709524Y-66235714D01*
X170900000Y-66426190D02*
X170900000Y-66045238D01*
X169169048Y-65950000D02*
X169216667Y-65926190D01*
X169288095Y-65926190D01*
X169359524Y-65950000D01*
X169407143Y-65997619D01*
X169430952Y-66045238D01*
X169454762Y-66140476D01*
X169454762Y-66211905D01*
X169430952Y-66307143D01*
X169407143Y-66354762D01*
X169359524Y-66402381D01*
X169288095Y-66426190D01*
X169240476Y-66426190D01*
X169169048Y-66402381D01*
X169145238Y-66378571D01*
X169145238Y-66211905D01*
X169240476Y-66211905D01*
D13*
X112864828Y-54640943D02*
X111721971Y-54640943D01*
X112293400Y-55212371D02*
X112293400Y-54069514D01*
X112078343Y-59168600D02*
X112221200Y-59097171D01*
X112435486Y-59097171D01*
X112649771Y-59168600D01*
X112792629Y-59311457D01*
X112864057Y-59454314D01*
X112935486Y-59740029D01*
X112935486Y-59954314D01*
X112864057Y-60240029D01*
X112792629Y-60382886D01*
X112649771Y-60525743D01*
X112435486Y-60597171D01*
X112292629Y-60597171D01*
X112078343Y-60525743D01*
X112006914Y-60454314D01*
X112006914Y-59954314D01*
X112292629Y-59954314D01*
D11*
X128750771Y-69745990D02*
X128750771Y-69245990D01*
X128560295Y-69245990D01*
X128512676Y-69269800D01*
X128488867Y-69293610D01*
X128465057Y-69341229D01*
X128465057Y-69412657D01*
X128488867Y-69460276D01*
X128512676Y-69484086D01*
X128560295Y-69507895D01*
X128750771Y-69507895D01*
X128179343Y-69745990D02*
X128226962Y-69722181D01*
X128250771Y-69698371D01*
X128274581Y-69650752D01*
X128274581Y-69507895D01*
X128250771Y-69460276D01*
X128226962Y-69436467D01*
X128179343Y-69412657D01*
X128107914Y-69412657D01*
X128060295Y-69436467D01*
X128036486Y-69460276D01*
X128012676Y-69507895D01*
X128012676Y-69650752D01*
X128036486Y-69698371D01*
X128060295Y-69722181D01*
X128107914Y-69745990D01*
X128179343Y-69745990D01*
X127846009Y-69412657D02*
X127750771Y-69745990D01*
X127655533Y-69507895D01*
X127560295Y-69745990D01*
X127465057Y-69412657D01*
X127084104Y-69722181D02*
X127131723Y-69745990D01*
X127226961Y-69745990D01*
X127274580Y-69722181D01*
X127298390Y-69674562D01*
X127298390Y-69484086D01*
X127274580Y-69436467D01*
X127226961Y-69412657D01*
X127131723Y-69412657D01*
X127084104Y-69436467D01*
X127060295Y-69484086D01*
X127060295Y-69531705D01*
X127298390Y-69579324D01*
X126846009Y-69745990D02*
X126846009Y-69412657D01*
X126846009Y-69507895D02*
X126822200Y-69460276D01*
X126798390Y-69436467D01*
X126750771Y-69412657D01*
X126703152Y-69412657D01*
X126536485Y-69745990D02*
X126536485Y-69245990D01*
X126298390Y-69412657D02*
X126298390Y-69745990D01*
X126298390Y-69460276D02*
X126274581Y-69436467D01*
X126226962Y-69412657D01*
X126155533Y-69412657D01*
X126107914Y-69436467D01*
X126084105Y-69484086D01*
X126084105Y-69745990D01*
X125846009Y-69412657D02*
X125846009Y-69912657D01*
X125846009Y-69436467D02*
X125798390Y-69412657D01*
X125703152Y-69412657D01*
X125655533Y-69436467D01*
X125631724Y-69460276D01*
X125607914Y-69507895D01*
X125607914Y-69650752D01*
X125631724Y-69698371D01*
X125655533Y-69722181D01*
X125703152Y-69745990D01*
X125798390Y-69745990D01*
X125846009Y-69722181D01*
X125179343Y-69412657D02*
X125179343Y-69745990D01*
X125393628Y-69412657D02*
X125393628Y-69674562D01*
X125369819Y-69722181D01*
X125322200Y-69745990D01*
X125250771Y-69745990D01*
X125203152Y-69722181D01*
X125179343Y-69698371D01*
X125012676Y-69412657D02*
X124822200Y-69412657D01*
X124941247Y-69245990D02*
X124941247Y-69674562D01*
X124917438Y-69722181D01*
X124869819Y-69745990D01*
X124822200Y-69745990D01*
X172533961Y-69826190D02*
X172533961Y-69326190D01*
X172343485Y-69326190D01*
X172295866Y-69350000D01*
X172272057Y-69373810D01*
X172248247Y-69421429D01*
X172248247Y-69492857D01*
X172272057Y-69540476D01*
X172295866Y-69564286D01*
X172343485Y-69588095D01*
X172533961Y-69588095D01*
X171962533Y-69826190D02*
X172010152Y-69802381D01*
X172033961Y-69778571D01*
X172057771Y-69730952D01*
X172057771Y-69588095D01*
X172033961Y-69540476D01*
X172010152Y-69516667D01*
X171962533Y-69492857D01*
X171891104Y-69492857D01*
X171843485Y-69516667D01*
X171819676Y-69540476D01*
X171795866Y-69588095D01*
X171795866Y-69730952D01*
X171819676Y-69778571D01*
X171843485Y-69802381D01*
X171891104Y-69826190D01*
X171962533Y-69826190D01*
X171629199Y-69492857D02*
X171533961Y-69826190D01*
X171438723Y-69588095D01*
X171343485Y-69826190D01*
X171248247Y-69492857D01*
X170867294Y-69802381D02*
X170914913Y-69826190D01*
X171010151Y-69826190D01*
X171057770Y-69802381D01*
X171081580Y-69754762D01*
X171081580Y-69564286D01*
X171057770Y-69516667D01*
X171010151Y-69492857D01*
X170914913Y-69492857D01*
X170867294Y-69516667D01*
X170843485Y-69564286D01*
X170843485Y-69611905D01*
X171081580Y-69659524D01*
X170629199Y-69826190D02*
X170629199Y-69492857D01*
X170629199Y-69588095D02*
X170605390Y-69540476D01*
X170581580Y-69516667D01*
X170533961Y-69492857D01*
X170486342Y-69492857D01*
X169843485Y-69326190D02*
X169748247Y-69326190D01*
X169700628Y-69350000D01*
X169653009Y-69397619D01*
X169629200Y-69492857D01*
X169629200Y-69659524D01*
X169653009Y-69754762D01*
X169700628Y-69802381D01*
X169748247Y-69826190D01*
X169843485Y-69826190D01*
X169891104Y-69802381D01*
X169938723Y-69754762D01*
X169962533Y-69659524D01*
X169962533Y-69492857D01*
X169938723Y-69397619D01*
X169891104Y-69350000D01*
X169843485Y-69326190D01*
X169200628Y-69492857D02*
X169200628Y-69826190D01*
X169414913Y-69492857D02*
X169414913Y-69754762D01*
X169391104Y-69802381D01*
X169343485Y-69826190D01*
X169272056Y-69826190D01*
X169224437Y-69802381D01*
X169200628Y-69778571D01*
X169033961Y-69492857D02*
X168843485Y-69492857D01*
X168962532Y-69326190D02*
X168962532Y-69754762D01*
X168938723Y-69802381D01*
X168891104Y-69826190D01*
X168843485Y-69826190D01*
X168676818Y-69492857D02*
X168676818Y-69992857D01*
X168676818Y-69516667D02*
X168629199Y-69492857D01*
X168533961Y-69492857D01*
X168486342Y-69516667D01*
X168462533Y-69540476D01*
X168438723Y-69588095D01*
X168438723Y-69730952D01*
X168462533Y-69778571D01*
X168486342Y-69802381D01*
X168533961Y-69826190D01*
X168629199Y-69826190D01*
X168676818Y-69802381D01*
X168010152Y-69492857D02*
X168010152Y-69826190D01*
X168224437Y-69492857D02*
X168224437Y-69754762D01*
X168200628Y-69802381D01*
X168153009Y-69826190D01*
X168081580Y-69826190D01*
X168033961Y-69802381D01*
X168010152Y-69778571D01*
X167843485Y-69492857D02*
X167653009Y-69492857D01*
X167772056Y-69326190D02*
X167772056Y-69754762D01*
X167748247Y-69802381D01*
X167700628Y-69826190D01*
X167653009Y-69826190D01*
X169826190Y-56397620D02*
X169826190Y-56111906D01*
X169826190Y-56254763D02*
X169326190Y-56254763D01*
X169397619Y-56207144D01*
X169445238Y-56159525D01*
X169469048Y-56111906D01*
X169326190Y-56707144D02*
X169326190Y-56754763D01*
X169350000Y-56802382D01*
X169373810Y-56826191D01*
X169421429Y-56850001D01*
X169516667Y-56873810D01*
X169635714Y-56873810D01*
X169730952Y-56850001D01*
X169778571Y-56826191D01*
X169802381Y-56802382D01*
X169826190Y-56754763D01*
X169826190Y-56707144D01*
X169802381Y-56659525D01*
X169778571Y-56635715D01*
X169730952Y-56611906D01*
X169635714Y-56588096D01*
X169516667Y-56588096D01*
X169421429Y-56611906D01*
X169373810Y-56635715D01*
X169350000Y-56659525D01*
X169326190Y-56707144D01*
X169326190Y-57183334D02*
X169326190Y-57230953D01*
X169350000Y-57278572D01*
X169373810Y-57302381D01*
X169421429Y-57326191D01*
X169516667Y-57350000D01*
X169635714Y-57350000D01*
X169730952Y-57326191D01*
X169778571Y-57302381D01*
X169802381Y-57278572D01*
X169826190Y-57230953D01*
X169826190Y-57183334D01*
X169802381Y-57135715D01*
X169778571Y-57111905D01*
X169730952Y-57088096D01*
X169635714Y-57064286D01*
X169516667Y-57064286D01*
X169421429Y-57088096D01*
X169373810Y-57111905D01*
X169350000Y-57135715D01*
X169326190Y-57183334D01*
X169492857Y-57564286D02*
X169826190Y-57564286D01*
X169540476Y-57564286D02*
X169516667Y-57588095D01*
X169492857Y-57635714D01*
X169492857Y-57707143D01*
X169516667Y-57754762D01*
X169564286Y-57778571D01*
X169826190Y-57778571D01*
X169492857Y-57945238D02*
X169492857Y-58135714D01*
X169826190Y-58016667D02*
X169397619Y-58016667D01*
X169350000Y-58040476D01*
X169326190Y-58088095D01*
X169326190Y-58135714D01*
D13*
X183755600Y-58914457D02*
X183684171Y-58771600D01*
X183684171Y-58557314D01*
X183755600Y-58343029D01*
X183898457Y-58200171D01*
X184041314Y-58128743D01*
X184327029Y-58057314D01*
X184541314Y-58057314D01*
X184827029Y-58128743D01*
X184969886Y-58200171D01*
X185112743Y-58343029D01*
X185184171Y-58557314D01*
X185184171Y-58700171D01*
X185112743Y-58914457D01*
X185041314Y-58985886D01*
X184541314Y-58985886D01*
X184541314Y-58700171D01*
D14*
X187000000Y-44000000D02*
X136000000Y-44000000D01*
X187000000Y-70000000D02*
X187000000Y-44000000D01*
X187000000Y-70200000D02*
X187000000Y-70000000D01*
X110000000Y-70200000D02*
X187000000Y-70200000D01*
X110000000Y-44000000D02*
X110000000Y-70200000D01*
X136000000Y-44000000D02*
X110000000Y-44000000D01*
M02*
